<svg width="150" height="142" viewBox="0 0 150 142" fill="none" xmlns="http://www.w3.org/2000/svg">
<path d="M17.8762 97.564C16.9996 97.564 16.3609 97.4258 15.9602 97.1493C15.5845 96.8477 15.3966 96.3577 15.3966 95.6791C15.3966 95.1262 15.5845 94.6864 15.9602 94.3597C16.3609 94.0079 16.9996 93.8319 17.8762 93.8319H28.8841V92.324H21.0696C20.3683 92.324 19.8173 92.2612 19.4166 92.1356C19.0158 91.9848 18.7027 91.7963 18.4773 91.5701C18.2769 91.3188 18.1517 91.0423 18.1016 90.7407C18.0515 90.414 18.0265 90.0622 18.0265 89.6852V83.2389C18.0265 82.6106 18.1016 82.108 18.2519 81.731C18.4272 81.354 18.6526 81.065 18.9282 80.864C19.2037 80.6378 19.5167 80.4996 19.8674 80.4493C20.2181 80.3739 20.5937 80.3362 20.9945 80.3362C21.3952 80.3362 21.7835 80.3739 22.1591 80.4493C22.5348 80.4996 22.873 80.6378 23.1735 80.864C23.4741 81.065 23.712 81.354 23.8874 81.731C24.0627 82.108 24.1503 82.6106 24.1503 83.2389V83.2766H39.629V83.2389C39.629 82.6106 39.7167 82.108 39.892 81.731C40.0674 81.354 40.3053 81.065 40.6059 80.864C40.9064 80.6378 41.2445 80.4996 41.6202 80.4493C41.9959 80.3739 42.3842 80.3362 42.7849 80.3362C43.1856 80.3362 43.5613 80.3739 43.912 80.4493C44.2626 80.4996 44.5757 80.6378 44.8512 80.864C45.1267 81.065 45.3396 81.354 45.4899 81.731C45.6652 82.108 45.7529 82.6106 45.7529 83.2389V89.6852C45.7529 90.0622 45.7279 90.414 45.6778 90.7407C45.6277 91.0423 45.4899 91.3188 45.2645 91.5701C45.0641 91.7963 44.7636 91.9848 44.3628 92.1356C43.9621 92.2612 43.4111 92.324 42.7098 92.324H34.9704V93.8319H45.9408C46.8174 93.8319 47.4435 94.0079 47.8192 94.3597C48.22 94.6864 48.4203 95.1262 48.4203 95.6791C48.4203 96.3577 48.22 96.8477 47.8192 97.1493C47.4435 97.4258 46.8174 97.564 45.9408 97.564H17.8762ZM21.1072 113.058C20.4059 113.058 19.8549 112.982 19.4541 112.832C19.0534 112.706 18.7403 112.517 18.5149 112.266C18.3145 112.015 18.1893 111.726 18.1392 111.399C18.0891 111.072 18.0641 110.733 18.0641 110.381V105.82C18.0641 105.568 18.0891 105.33 18.1392 105.104C18.2143 104.852 18.3521 104.639 18.5525 104.463C18.7528 104.262 19.0409 104.111 19.4166 104.01C19.7923 103.885 20.2932 103.822 20.9193 103.822H39.6666V102.729H20.5812C19.5293 102.729 18.828 102.565 18.4773 102.238C18.1267 101.912 17.9513 101.434 17.9513 100.806C17.9513 100.303 18.1267 99.8635 18.4773 99.4866C18.828 99.1096 19.5293 98.9211 20.5812 98.9211H42.9352C43.5363 98.9211 44.0247 98.9965 44.4004 99.1473C44.7761 99.273 45.0641 99.4363 45.2645 99.6374C45.4649 99.8384 45.5901 100.065 45.6402 100.316C45.7153 100.567 45.7529 100.819 45.7529 101.07V105.556C45.7529 106.159 45.5776 106.637 45.2269 106.988C44.8763 107.34 44.0998 107.516 42.8976 107.516H24.1503V108.836H43.1606C43.8619 108.836 44.438 108.886 44.8888 108.986C45.3396 109.112 45.6903 109.263 45.9408 109.439C46.1912 109.64 46.354 109.866 46.4292 110.117C46.5293 110.369 46.5794 110.645 46.5794 110.947C46.5794 111.298 46.5293 111.6 46.4292 111.851C46.354 112.128 46.1912 112.354 45.9408 112.53C45.6903 112.706 45.3396 112.832 44.8888 112.907C44.438 113.007 43.8619 113.058 43.1606 113.058H21.1072ZM39.629 88.4412V86.971H24.1503V88.4412H39.629Z" fill="url(#paint0_linear_173_1343)"/>
<path d="M62.4412 111.851C61.7399 111.851 61.1638 111.776 60.713 111.625C60.2621 111.474 59.9115 111.273 59.661 111.022C59.4105 110.796 59.2352 110.519 59.135 110.193C59.0599 109.891 59.0223 109.59 59.0223 109.288C59.0223 108.911 59.0599 108.559 59.135 108.232C59.2352 107.931 59.4105 107.654 59.661 107.403C59.9115 107.177 60.2621 106.988 60.713 106.838C61.1638 106.712 61.7399 106.649 62.4412 106.649H72.4723V101.183H64.6578C63.9565 101.183 63.4055 101.108 63.0047 100.957C62.604 100.806 62.2909 100.605 62.0655 100.354C61.8651 100.077 61.7399 99.7756 61.6898 99.4489C61.6397 99.097 61.6146 98.7326 61.6146 98.3556V91.3816C61.6146 90.7533 61.6898 90.2381 61.8401 89.836C62.0154 89.4088 62.2408 89.0695 62.5163 88.8182C62.8169 88.5668 63.1425 88.3909 63.4931 88.2904C63.8688 88.1899 64.257 88.1396 64.6578 88.1396H83.2548V85.5385H64.4699C63.8438 85.5385 63.3428 85.4631 62.9671 85.3123C62.5914 85.1364 62.3034 84.9227 62.103 84.6714C61.9027 84.395 61.7649 84.1185 61.6898 83.8421C61.6397 83.5405 61.6146 83.2515 61.6146 82.975C61.6146 82.6483 61.6397 82.3342 61.6898 82.0326C61.7649 81.731 61.9027 81.4546 62.103 81.2033C62.3034 80.9519 62.5914 80.7509 62.9671 80.6001C63.3428 80.4493 63.8438 80.3739 64.4699 80.3739H86.2979C86.9992 80.3739 87.5502 80.4619 87.951 80.6378C88.3517 80.7886 88.6523 81.0022 88.8527 81.2786C89.0781 81.5551 89.2158 81.8692 89.2659 82.2211C89.316 82.5729 89.3411 82.9373 89.3411 83.3143V90.0999C89.3411 91.0297 89.0906 91.7963 88.5897 92.3994C88.1138 92.9775 87.3874 93.2665 86.4106 93.2665H67.7009V96.0184H87.0869C87.713 96.0184 88.214 96.1064 88.5897 96.2823C88.9654 96.4331 89.2534 96.6467 89.4538 96.9231C89.6541 97.1745 89.7794 97.4509 89.8295 97.7525C89.9046 98.0541 89.9422 98.3305 89.9422 98.5818C89.9422 98.9085 89.9046 99.2353 89.8295 99.562C89.7794 99.8635 89.6541 100.14 89.4538 100.391C89.2534 100.617 88.9654 100.806 88.5897 100.957C88.214 101.108 87.713 101.183 87.0869 101.183H78.5586V106.649H88.5521C89.2534 106.649 89.8295 106.712 90.2803 106.838C90.7311 106.988 91.0818 107.177 91.3322 107.403C91.5827 107.654 91.7455 107.931 91.8207 108.232C91.9208 108.559 91.9709 108.911 91.9709 109.288C91.9709 109.59 91.9208 109.891 91.8207 110.193C91.7455 110.519 91.5827 110.796 91.3322 111.022C91.0818 111.273 90.7311 111.474 90.2803 111.625C89.8295 111.776 89.2534 111.851 88.5521 111.851H62.4412Z" fill="url(#paint1_linear_173_1343)"/>
<path d="M126.73 100.844C126.129 100.567 125.678 100.178 125.378 99.6751C125.102 99.1473 125.09 98.5064 125.34 97.7525C125.591 96.898 125.791 96.1064 125.941 95.3775C126.092 94.6487 126.192 93.945 126.242 93.2665C126.292 92.5879 126.317 91.8968 126.317 91.1931C126.342 90.4894 126.355 89.7229 126.355 88.8936V85.9908H108.546C107.845 85.9908 107.269 85.928 106.818 85.8024C106.367 85.6516 106.017 85.4631 105.766 85.2369C105.516 84.9856 105.341 84.7091 105.24 84.4076C105.165 84.0808 105.128 83.729 105.128 83.352C105.128 83.0504 105.165 82.7489 105.24 82.4473C105.341 82.1206 105.516 81.8441 105.766 81.6179C106.017 81.3666 106.367 81.1656 106.818 81.0148C107.269 80.864 107.845 80.7886 108.546 80.7886H129.698C130.374 80.7886 130.9 80.864 131.276 81.0148C131.652 81.1404 131.94 81.3289 132.14 81.5802C132.341 81.8064 132.466 82.0954 132.516 82.4473C132.566 82.7991 132.591 83.2012 132.591 83.6536V88.5543C132.591 89.7606 132.566 90.9292 132.516 92.0602C132.491 93.166 132.403 94.2089 132.253 95.189C132.128 96.144 131.927 97.0362 131.652 97.8656C131.401 98.6949 131.038 99.4237 130.562 100.052C130.312 100.404 130.024 100.668 129.698 100.844C129.373 100.994 129.034 101.095 128.684 101.145C128.333 101.196 127.983 101.196 127.632 101.145C127.306 101.07 127.006 100.969 126.73 100.844ZM106.029 111.851C105.328 111.851 104.752 111.776 104.301 111.625C103.85 111.474 103.5 111.273 103.249 111.022C102.999 110.796 102.823 110.519 102.723 110.193C102.648 109.891 102.61 109.59 102.61 109.288C102.61 108.911 102.648 108.559 102.723 108.232C102.823 107.931 102.999 107.654 103.249 107.403C103.5 107.177 103.85 106.988 104.301 106.838C104.752 106.712 105.328 106.649 106.029 106.649H132.14C132.842 106.649 133.418 106.712 133.868 106.838C134.319 106.988 134.67 107.177 134.92 107.403C135.171 107.654 135.334 107.931 135.409 108.232C135.509 108.559 135.559 108.911 135.559 109.288C135.559 109.59 135.509 109.891 135.409 110.193C135.334 110.519 135.171 110.796 134.92 111.022C134.67 111.273 134.319 111.474 133.868 111.625C133.418 111.776 132.842 111.851 132.14 111.851H106.029Z" fill="url(#paint2_linear_173_1343)"/>
<path d="M12.2449 141.849C11.8887 141.849 11.5715 141.743 11.2932 141.531C11.026 141.33 10.8924 140.95 10.8924 140.392V138.448H2.52691C2.21522 138.448 1.95919 138.415 1.75882 138.348C1.55845 138.281 1.4026 138.197 1.29128 138.096C1.17997 137.985 1.10204 137.862 1.05752 137.728C1.02412 137.582 1.00742 137.443 1.00742 137.309C1.00742 137.141 1.02412 136.99 1.05752 136.856C1.10204 136.711 1.17997 136.588 1.29128 136.488C1.4026 136.376 1.55845 136.292 1.75882 136.236C1.95919 136.169 2.21522 136.136 2.52691 136.136H12.2449C12.5566 136.136 12.8015 136.169 12.9796 136.236C13.1577 136.292 13.2913 136.376 13.3804 136.488C13.4806 136.588 13.5418 136.711 13.564 136.856C13.5863 136.99 13.5974 137.141 13.5974 137.309V140.392C13.5974 140.671 13.5585 140.905 13.4806 141.095C13.4026 141.285 13.3024 141.436 13.18 141.548C13.0575 141.659 12.9128 141.738 12.7459 141.782C12.59 141.827 12.423 141.849 12.2449 141.849ZM7.43601 135.365C7.31356 135.365 7.18555 135.354 7.05197 135.332C6.91839 135.298 6.79037 135.237 6.66792 135.147C6.27831 134.857 5.89426 134.539 5.51578 134.192C5.1373 133.835 4.78665 133.461 4.46383 133.07C4.17441 133.461 3.84602 133.829 3.47867 134.176C3.11133 134.511 2.72171 134.796 2.30984 135.03C2.16513 135.119 2.00372 135.192 1.82561 135.248C1.65863 135.304 1.48609 135.337 1.30798 135.348C1.11874 135.36 0.923936 135.326 0.723564 135.248C0.523192 135.17 0.356216 135.019 0.222635 134.796C-1.49012e-08 134.438 -0.0556588 134.109 0.0556588 133.807C0.166976 133.505 0.406309 133.232 0.773657 132.986C1.12987 132.752 1.44156 132.534 1.70872 132.333C1.97589 132.132 2.19852 131.914 2.37663 131.679C2.56587 131.445 2.71615 131.171 2.82747 130.858C2.91652 130.601 2.97218 130.272 2.99444 129.87H1.77551C1.46383 129.87 1.2078 129.836 1.00742 129.769C0.807052 129.702 0.651208 129.618 0.53989 129.518C0.428573 129.406 0.35065 129.283 0.306123 129.149C0.272728 129.004 0.25603 128.864 0.25603 128.73C0.25603 128.563 0.272728 128.412 0.306123 128.278C0.35065 128.133 0.428573 128.01 0.53989 127.909C0.651208 127.798 0.807052 127.714 1.00742 127.658C1.2078 127.591 1.46383 127.558 1.77551 127.558H6.8182C7.12989 127.558 7.38592 127.591 7.58629 127.658C7.78666 127.714 7.94251 127.798 8.05382 127.909C8.16514 128.01 8.2375 128.133 8.27089 128.278C8.31542 128.412 8.33768 128.563 8.33768 128.73C8.33768 128.864 8.31542 129.004 8.27089 129.149C8.2375 129.283 8.16514 129.406 8.05382 129.518C7.94251 129.618 7.78666 129.702 7.58629 129.769C7.38592 129.836 7.12989 129.87 6.8182 129.87H5.76625C5.79964 130.261 5.86087 130.59 5.94992 130.858C6.07237 131.182 6.21709 131.467 6.38406 131.713C6.56217 131.947 6.77367 132.165 7.01857 132.366C7.2746 132.556 7.56403 132.757 7.88685 132.969C8.24306 133.215 8.47683 133.489 8.58815 133.79C8.7106 134.092 8.6605 134.421 8.43787 134.779C8.31542 134.969 8.16514 135.114 7.98703 135.214C7.82006 135.304 7.63638 135.354 7.43601 135.365ZM12.2115 135.482C12.0334 135.482 11.8609 135.46 11.6939 135.415C11.5381 135.371 11.3933 135.293 11.2598 135.181C11.1373 135.069 11.0371 134.918 10.9592 134.729C10.8924 134.539 10.859 134.299 10.859 134.008V128.747C10.859 128.189 10.9926 127.809 11.2598 127.608C11.5381 127.396 11.8553 127.29 12.2115 127.29C12.3896 127.29 12.5566 127.312 12.7125 127.357C12.8794 127.401 13.0242 127.479 13.1466 127.591C13.2691 127.703 13.3692 127.854 13.4472 128.044C13.5251 128.233 13.564 128.468 13.564 128.747V134.008C13.564 134.299 13.5251 134.539 13.4472 134.729C13.3692 134.918 13.2691 135.069 13.1466 135.181C13.0242 135.293 12.8794 135.371 12.7125 135.415C12.5566 135.46 12.3896 135.482 12.2115 135.482Z" fill="url(#paint3_linear_173_1343)"/>
<path d="M23.5358 141.849C23.2241 141.849 22.9792 141.816 22.8011 141.749C22.623 141.693 22.4838 141.609 22.3837 141.497C22.2946 141.397 22.2389 141.274 22.2167 141.129C22.1944 140.995 22.1833 140.844 22.1833 140.676V138.666C22.1833 138.387 22.2167 138.158 22.2835 137.979C22.3614 137.789 22.4616 137.644 22.584 137.543C22.7176 137.432 22.8623 137.359 23.0182 137.326C23.1851 137.281 23.3577 137.258 23.5358 137.258C23.7139 137.258 23.8809 137.281 24.0367 137.326C24.2037 137.359 24.3484 137.432 24.4709 137.543C24.5933 137.644 24.6935 137.789 24.7714 137.979C24.8493 138.158 24.8883 138.387 24.8883 138.666V139.604H33.2538C33.5655 139.604 33.8215 139.632 34.0219 139.688C34.2223 139.755 34.3781 139.839 34.4894 139.939C34.6008 140.051 34.6731 140.174 34.7065 140.308C34.751 140.442 34.7733 140.576 34.7733 140.71C34.7733 140.877 34.751 141.028 34.7065 141.162C34.6731 141.307 34.6008 141.43 34.4894 141.531C34.3781 141.631 34.2223 141.71 34.0219 141.765C33.8215 141.821 33.5655 141.849 33.2538 141.849H23.5358ZM22.4671 136.588C22.1555 136.588 21.8994 136.56 21.699 136.505C21.4987 136.438 21.3428 136.354 21.2315 136.253C21.1202 136.142 21.0423 136.019 20.9977 135.885C20.9644 135.751 20.9477 135.617 20.9477 135.482C20.9477 135.315 20.9644 135.164 20.9977 135.03C21.0423 134.885 21.1202 134.762 21.2315 134.662C21.3428 134.561 21.4987 134.483 21.699 134.427C21.8994 134.371 22.1555 134.343 22.4671 134.343H22.8846V132.249C22.8846 131.69 23.0182 131.311 23.2853 131.11C23.5636 130.897 23.8809 130.791 24.2371 130.791C24.4152 130.791 24.5822 130.814 24.738 130.858C24.905 130.903 25.0497 130.981 25.1722 131.093C25.2946 131.205 25.3948 131.355 25.4727 131.545C25.5506 131.735 25.5896 131.97 25.5896 132.249V134.343H29.046C29.3577 134.343 29.6137 134.371 29.8141 134.427C30.0145 134.483 30.1703 134.561 30.2816 134.662C30.3929 134.762 30.4653 134.885 30.4987 135.03C30.5432 135.164 30.5655 135.315 30.5655 135.482C30.5655 135.617 30.5432 135.751 30.4987 135.885C30.4653 136.019 30.3929 136.142 30.2816 136.253C30.1703 136.354 30.0145 136.438 29.8141 136.505C29.6137 136.56 29.3577 136.588 29.046 136.588H22.4671ZM27.9273 133.455C27.482 133.399 27.1759 133.271 27.0089 133.07C26.8419 132.858 26.7696 132.578 26.7918 132.232C26.803 132.02 26.8197 131.774 26.8419 131.495C26.8753 131.216 26.892 130.964 26.892 130.741V129.803H22.7176C22.4059 129.803 22.1499 129.775 21.9495 129.719C21.7491 129.652 21.5933 129.568 21.482 129.468C21.3707 129.356 21.2927 129.233 21.2482 129.099C21.2148 128.954 21.1981 128.797 21.1981 128.63C21.1981 128.496 21.2148 128.362 21.2482 128.228C21.2927 128.083 21.3707 127.96 21.482 127.859C21.5933 127.748 21.7491 127.658 21.9495 127.591C22.1499 127.524 22.4059 127.491 22.7176 127.491H28.3781C28.6787 127.491 28.9124 127.524 29.0794 127.591C29.2464 127.647 29.3744 127.731 29.4634 127.842C29.5525 127.943 29.6082 128.071 29.6304 128.228C29.6527 128.384 29.6638 128.563 29.6638 128.764V129.92C29.6638 130.054 29.6583 130.227 29.6471 130.439C29.636 130.64 29.6193 130.858 29.597 131.093C29.5859 131.316 29.5636 131.545 29.5302 131.78C29.508 132.014 29.4801 132.232 29.4468 132.433C29.38 132.791 29.2297 133.064 28.9959 133.254C28.7621 133.444 28.4059 133.511 27.9273 133.455ZM32.7195 137.862C32.5414 137.862 32.3688 137.839 32.2019 137.795C32.046 137.75 31.9013 137.672 31.7677 137.56C31.6453 137.448 31.5451 137.298 31.4672 137.108C31.4004 136.918 31.367 136.678 31.367 136.387V128.747C31.367 128.189 31.5006 127.809 31.7677 127.608C32.046 127.396 32.3633 127.29 32.7195 127.29C32.8976 127.29 33.0646 127.312 33.2204 127.357C33.3874 127.401 33.5321 127.479 33.6546 127.591C33.777 127.703 33.8772 127.854 33.9551 128.044C34.033 128.233 34.072 128.468 34.072 128.747V131.528H34.9236C35.2353 131.528 35.4913 131.568 35.6917 131.646C35.892 131.713 36.0479 131.802 36.1592 131.914C36.2705 132.025 36.3429 132.154 36.3763 132.299C36.4208 132.433 36.4431 132.567 36.4431 132.701C36.4431 132.869 36.4208 133.025 36.3763 133.17C36.3429 133.316 36.2705 133.444 36.1592 133.556C36.0479 133.656 35.892 133.74 35.6917 133.807C35.4913 133.874 35.2353 133.908 34.9236 133.908H34.072V136.387C34.072 136.678 34.033 136.918 33.9551 137.108C33.8772 137.298 33.777 137.448 33.6546 137.56C33.5321 137.672 33.3874 137.75 33.2204 137.795C33.0646 137.839 32.8976 137.862 32.7195 137.862Z" fill="url(#paint4_linear_173_1343)"/>
<path d="M44.3443 142C44.0326 142 43.7877 141.966 43.6096 141.899C43.4315 141.844 43.2923 141.76 43.1922 141.648C43.1031 141.536 43.0474 141.408 43.0252 141.263C43.0029 141.118 42.9918 140.967 42.9918 140.81V138.498C42.9918 138.387 43.0029 138.281 43.0252 138.18C43.0586 138.068 43.1198 137.973 43.2089 137.895C43.2979 137.806 43.4259 137.739 43.5929 137.694C43.7599 137.638 43.9825 137.61 44.2608 137.61H52.5929V137.024H44.1105C43.643 137.024 43.3313 136.94 43.1755 136.773C43.0196 136.594 42.9417 136.365 42.9417 136.086C42.9417 135.862 43.0196 135.656 43.1755 135.466C43.3313 135.265 43.643 135.164 44.1105 135.164H54.0456C54.3128 135.164 54.5299 135.198 54.6968 135.265C54.8638 135.321 54.9918 135.393 55.0809 135.482C55.1699 135.572 55.2256 135.672 55.2479 135.784C55.2812 135.896 55.2979 136.007 55.2979 136.119V138.549C55.2979 138.817 55.22 139.029 55.0642 139.185C54.9083 139.342 54.5632 139.42 54.0289 139.42H45.6968V140.123H54.1458C54.4575 140.123 54.7135 140.146 54.9139 140.191C55.1143 140.246 55.2701 140.313 55.3814 140.392C55.4927 140.481 55.5651 140.581 55.5985 140.693C55.643 140.805 55.6653 140.928 55.6653 141.062C55.6653 141.218 55.643 141.352 55.5985 141.464C55.5651 141.587 55.4927 141.687 55.3814 141.765C55.2701 141.844 55.1143 141.899 54.9139 141.933C54.7135 141.978 54.4575 142 54.1458 142H44.3443ZM42.9083 134.477C42.5187 134.477 42.2348 134.41 42.0567 134.276C41.8897 134.142 41.8063 133.924 41.8063 133.623C41.8063 133.377 41.8897 133.176 42.0567 133.02C42.2348 132.863 42.5187 132.785 42.9083 132.785H55.3814C55.771 132.785 56.0493 132.863 56.2163 133.02C56.3944 133.176 56.4835 133.377 56.4835 133.623C56.4835 133.924 56.3944 134.142 56.2163 134.276C56.0493 134.41 55.771 134.477 55.3814 134.477H42.9083ZM45.964 132.065C45.374 132.065 44.8786 132.02 44.4779 131.931C44.0771 131.841 43.7487 131.713 43.4927 131.545C43.2478 131.367 43.0697 131.154 42.9584 130.909C42.8582 130.663 42.8081 130.384 42.8081 130.071V129.618C42.8081 128.993 43.0697 128.479 43.5929 128.077C44.1161 127.664 44.9287 127.457 46.0308 127.457H52.0753C53.1885 127.457 54.0289 127.658 54.5966 128.06C55.1755 128.462 55.4649 128.982 55.4649 129.618V130.071C55.4649 130.384 55.4093 130.663 55.2979 130.909C55.1978 131.154 55.0252 131.367 54.7803 131.545C54.5354 131.713 54.2126 131.841 53.8119 131.931C53.4111 132.02 52.9157 132.065 52.3258 132.065H45.964ZM51.3573 130.238C51.8471 130.238 52.2089 130.21 52.4426 130.155C52.6875 130.099 52.81 129.981 52.81 129.803V129.719C52.81 129.529 52.6875 129.412 52.4426 129.367C52.2089 129.311 51.8304 129.283 51.3072 129.283H46.9658C46.4426 129.283 46.0586 129.311 45.8137 129.367C45.5799 129.412 45.463 129.529 45.463 129.719V129.803C45.463 129.981 45.5799 130.099 45.8137 130.155C46.0586 130.21 46.4259 130.238 46.9157 130.238H51.3573Z" fill="url(#paint5_linear_173_1343)"/>
<path d="M77.272 141.347C76.9381 141.514 76.632 141.548 76.3537 141.447C76.0865 141.347 75.8639 141.201 75.6858 141.011C75.5744 140.911 75.4965 140.783 75.452 140.626C75.4075 140.481 75.3908 140.325 75.4019 140.157C75.413 139.989 75.4464 139.816 75.5021 139.638C75.5689 139.47 75.6523 139.314 75.7525 139.168C76.0197 138.789 76.2368 138.431 76.4037 138.096C76.5707 137.75 76.6987 137.409 76.7878 137.074C76.8768 136.728 76.9381 136.365 76.9715 135.985C77.0049 135.605 77.0216 135.181 77.0216 134.712V129.803H74.016C73.7043 129.803 73.4483 129.775 73.2479 129.719C73.0475 129.652 72.8917 129.568 72.7804 129.468C72.669 129.356 72.5911 129.233 72.5466 129.099C72.5132 128.954 72.4965 128.797 72.4965 128.63C72.4965 128.496 72.5132 128.362 72.5466 128.228C72.5911 128.083 72.669 127.96 72.7804 127.859C72.8917 127.748 73.0475 127.658 73.2479 127.591C73.4483 127.524 73.7043 127.491 74.016 127.491H78.5076C78.8082 127.491 79.042 127.524 79.2089 127.591C79.3759 127.647 79.5039 127.731 79.593 127.842C79.6821 127.943 79.7377 128.071 79.76 128.228C79.7822 128.384 79.7934 128.563 79.7934 128.764V135.332C79.7934 135.555 79.7767 135.834 79.7433 136.169C79.7099 136.505 79.6542 136.868 79.5763 137.258C79.4984 137.649 79.3926 138.052 79.259 138.465C79.1366 138.878 78.9807 139.269 78.7915 139.638C78.6023 140.006 78.3796 140.341 78.1236 140.643C77.8787 140.944 77.5948 141.179 77.272 141.347ZM85.0364 141.665C84.8583 141.665 84.6858 141.643 84.5188 141.598C84.363 141.553 84.2182 141.475 84.0847 141.363C83.9622 141.252 83.862 141.101 83.7841 140.911C83.7173 140.721 83.6839 140.481 83.6839 140.191V128.747C83.6839 128.189 83.8175 127.809 84.0847 127.608C84.363 127.396 84.6802 127.29 85.0364 127.29C85.2145 127.29 85.3815 127.312 85.5373 127.357C85.7043 127.401 85.849 127.479 85.9715 127.591C86.0939 127.703 86.1941 127.854 86.272 128.044C86.35 128.233 86.3889 128.468 86.3889 128.747V140.191C86.3889 140.481 86.35 140.721 86.272 140.911C86.1941 141.101 86.0939 141.252 85.9715 141.363C85.849 141.475 85.7043 141.553 85.5373 141.598C85.3815 141.643 85.2145 141.665 85.0364 141.665Z" fill="url(#paint6_linear_173_1343)"/>
<path d="M94.8412 136.873C94.5629 136.873 94.3403 136.851 94.1733 136.806C94.0063 136.761 93.8783 136.694 93.7892 136.605C93.7002 136.516 93.639 136.415 93.6056 136.303C93.5833 136.181 93.5722 136.041 93.5722 135.885C93.5722 135.762 93.5833 135.644 93.6056 135.533C93.639 135.41 93.7002 135.304 93.7892 135.214C93.8783 135.125 94.0063 135.052 94.1733 134.997C94.3403 134.941 94.5629 134.913 94.8412 134.913H99.5666V134.058H96.1102C95.7985 134.058 95.5536 134.03 95.3755 133.975C95.1974 133.908 95.0583 133.824 94.9581 133.723C94.869 133.623 94.8134 133.505 94.7911 133.371C94.7688 133.226 94.7577 133.075 94.7577 132.919V130.808C94.7577 130.696 94.7688 130.585 94.7911 130.473C94.8245 130.361 94.8857 130.261 94.9748 130.171C95.0638 130.071 95.1918 129.993 95.3588 129.937C95.5258 129.881 95.7484 129.853 96.0267 129.853H104.359V129.25H95.8097C95.4201 129.25 95.1362 129.172 94.9581 129.015C94.7911 128.848 94.7076 128.624 94.7076 128.345C94.7076 128.122 94.7911 127.91 94.9581 127.708C95.1362 127.496 95.4201 127.39 95.8097 127.39H105.812C106.079 127.39 106.296 127.424 106.463 127.491C106.63 127.558 106.758 127.647 106.847 127.759C106.936 127.859 106.992 127.971 107.014 128.094C107.047 128.217 107.064 128.334 107.064 128.446V130.523C107.064 130.657 107.047 130.786 107.014 130.909C106.98 131.031 106.919 131.138 106.83 131.227C106.741 131.316 106.613 131.389 106.446 131.445C106.279 131.501 106.062 131.528 105.795 131.528H97.4627V132.215H106.079C106.546 132.215 106.886 132.305 107.097 132.483C107.32 132.651 107.431 132.869 107.431 133.137C107.431 133.751 106.98 134.058 106.079 134.058H102.272V134.913H106.98C107.259 134.913 107.481 134.941 107.648 134.997C107.815 135.052 107.943 135.125 108.032 135.214C108.121 135.304 108.177 135.41 108.199 135.533C108.233 135.644 108.249 135.762 108.249 135.885C108.249 136.041 108.233 136.181 108.199 136.303C108.177 136.415 108.121 136.516 108.032 136.605C107.943 136.694 107.815 136.761 107.648 136.806C107.481 136.851 107.259 136.873 106.98 136.873H94.8412ZM105.728 141.849C105.372 141.849 105.055 141.743 104.776 141.531C104.509 141.33 104.376 140.95 104.376 140.392V139.738H96.177C95.8653 139.738 95.6093 139.71 95.4089 139.654C95.2085 139.599 95.0527 139.526 94.9414 139.437C94.8301 139.347 94.7521 139.241 94.7076 139.118C94.6742 138.984 94.6575 138.85 94.6575 138.716C94.6575 138.549 94.6742 138.403 94.7076 138.281C94.7521 138.146 94.8301 138.035 94.9414 137.945C95.0527 137.856 95.2085 137.789 95.4089 137.744C95.6093 137.689 95.8653 137.661 96.177 137.661H105.728C106.04 137.661 106.285 137.7 106.463 137.778C106.641 137.856 106.774 137.962 106.863 138.096C106.964 138.219 107.025 138.364 107.047 138.532C107.069 138.688 107.081 138.85 107.081 139.018V140.392C107.081 140.671 107.042 140.905 106.964 141.095C106.886 141.285 106.786 141.436 106.663 141.548C106.541 141.659 106.396 141.738 106.229 141.782C106.073 141.827 105.906 141.849 105.728 141.849Z" fill="url(#paint7_linear_173_1343)"/>
<path d="M125.802 141.665C125.624 141.665 125.451 141.643 125.284 141.598C125.128 141.553 124.984 141.475 124.85 141.363C124.728 141.252 124.627 141.101 124.55 140.911C124.483 140.721 124.449 140.481 124.449 140.191V128.747C124.449 128.189 124.583 127.809 124.85 127.608C125.128 127.396 125.446 127.29 125.802 127.29C125.98 127.29 126.147 127.312 126.303 127.357C126.47 127.401 126.614 127.479 126.737 127.591C126.859 127.703 126.96 127.854 127.037 128.044C127.115 128.233 127.154 128.468 127.154 128.747V133.087H128.106C128.418 133.087 128.674 133.12 128.874 133.187C129.075 133.254 129.23 133.344 129.342 133.455C129.453 133.556 129.525 133.679 129.559 133.824C129.603 133.958 129.626 134.092 129.626 134.226C129.626 134.393 129.603 134.55 129.559 134.695C129.525 134.829 129.453 134.952 129.342 135.064C129.23 135.164 129.075 135.248 128.874 135.315C128.674 135.371 128.418 135.399 128.106 135.399H127.154V140.191C127.154 140.481 127.115 140.721 127.037 140.911C126.96 141.101 126.859 141.252 126.737 141.363C126.614 141.475 126.47 141.553 126.303 141.598C126.147 141.643 125.98 141.665 125.802 141.665ZM118.672 141.598C118.026 141.598 117.486 141.525 117.052 141.38C116.618 141.235 116.262 141.017 115.984 140.727C115.716 140.447 115.516 140.096 115.383 139.671C115.249 139.258 115.165 138.778 115.132 138.23V136.538C115.165 135.98 115.243 135.488 115.366 135.064C115.499 134.639 115.7 134.282 115.967 133.991C116.245 133.701 116.601 133.483 117.036 133.338C117.47 133.182 118.015 133.103 118.672 133.103C119.284 133.103 119.807 133.182 120.242 133.338C120.676 133.483 121.032 133.701 121.31 133.991C121.589 134.282 121.8 134.645 121.945 135.08C122.089 135.505 122.178 135.991 122.212 136.538V138.23C122.19 139.358 121.906 140.202 121.36 140.76C120.826 141.319 119.93 141.598 118.672 141.598ZM118.672 139.37C118.761 139.37 118.85 139.358 118.939 139.336C119.039 139.325 119.128 139.28 119.206 139.202C119.284 139.124 119.351 139.018 119.407 138.884C119.462 138.738 119.496 138.537 119.507 138.281V136.421C119.507 136.186 119.479 135.996 119.423 135.851C119.379 135.706 119.312 135.6 119.223 135.533C119.145 135.455 119.056 135.404 118.956 135.382C118.856 135.36 118.761 135.348 118.672 135.348C118.583 135.348 118.488 135.365 118.388 135.399C118.299 135.421 118.216 135.471 118.138 135.55C118.06 135.628 117.993 135.745 117.937 135.901C117.882 136.047 117.848 136.236 117.837 136.471V138.281C117.837 138.537 117.859 138.738 117.904 138.884C117.96 139.018 118.026 139.124 118.104 139.202C118.182 139.28 118.271 139.325 118.371 139.336C118.472 139.358 118.572 139.37 118.672 139.37ZM115.817 132.416C115.505 132.416 115.249 132.389 115.049 132.333C114.848 132.266 114.692 132.182 114.581 132.081C114.47 131.981 114.392 131.864 114.347 131.73C114.314 131.595 114.297 131.461 114.297 131.327C114.297 131.16 114.314 131.009 114.347 130.875C114.392 130.741 114.47 130.624 114.581 130.523C114.692 130.423 114.848 130.344 115.049 130.289C115.249 130.233 115.505 130.205 115.817 130.205H121.293C121.605 130.205 121.861 130.233 122.062 130.289C122.262 130.344 122.418 130.423 122.529 130.523C122.64 130.624 122.713 130.741 122.746 130.875C122.791 131.009 122.813 131.16 122.813 131.327C122.813 131.461 122.791 131.595 122.746 131.73C122.713 131.864 122.64 131.981 122.529 132.081C122.418 132.182 122.262 132.266 122.062 132.333C121.861 132.389 121.605 132.416 121.293 132.416H115.817ZM116.869 129.317C116.557 129.317 116.301 129.289 116.101 129.233C115.9 129.166 115.744 129.082 115.633 128.982C115.522 128.881 115.444 128.764 115.399 128.63C115.366 128.496 115.349 128.362 115.349 128.228C115.349 128.06 115.366 127.909 115.399 127.775C115.444 127.641 115.522 127.524 115.633 127.424C115.744 127.323 115.9 127.245 116.101 127.189C116.301 127.133 116.557 127.105 116.869 127.105H120.242C120.553 127.105 120.809 127.133 121.01 127.189C121.21 127.245 121.366 127.323 121.477 127.424C121.589 127.524 121.661 127.641 121.694 127.775C121.739 127.909 121.761 128.06 121.761 128.228C121.761 128.362 121.739 128.496 121.694 128.63C121.661 128.764 121.589 128.881 121.477 128.982C121.366 129.082 121.21 129.166 121.01 129.233C120.809 129.289 120.553 129.317 120.242 129.317H116.869Z" fill="url(#paint8_linear_173_1343)"/>
<path d="M137.844 132.366C137.532 132.366 137.288 132.338 137.109 132.282C136.931 132.215 136.792 132.132 136.692 132.031C136.603 131.919 136.547 131.797 136.525 131.662C136.503 131.517 136.492 131.361 136.492 131.193V128.747C136.492 128.189 136.625 127.809 136.892 127.608C137.171 127.396 137.488 127.29 137.844 127.29C138.022 127.29 138.189 127.312 138.345 127.357C138.512 127.401 138.657 127.479 138.779 127.591C138.902 127.703 139.002 127.854 139.08 128.044C139.158 128.233 139.197 128.468 139.197 128.747V130.222H147.529C147.807 130.222 148.03 130.255 148.197 130.322C148.364 130.389 148.492 130.473 148.581 130.573C148.67 130.674 148.725 130.791 148.748 130.925C148.781 131.048 148.798 131.165 148.798 131.277C148.798 131.422 148.781 131.562 148.748 131.696C148.725 131.819 148.67 131.931 148.581 132.031C148.492 132.132 148.364 132.215 148.197 132.282C148.03 132.338 147.807 132.366 147.529 132.366H137.844ZM137.844 141.832C137.532 141.832 137.288 141.799 137.109 141.732C136.931 141.676 136.792 141.592 136.692 141.481C136.603 141.38 136.547 141.257 136.525 141.112C136.503 140.978 136.492 140.827 136.492 140.66V138.498C136.492 137.94 136.625 137.56 136.892 137.359C137.171 137.147 137.488 137.041 137.844 137.041C138.022 137.041 138.189 137.063 138.345 137.108C138.512 137.152 138.657 137.231 138.779 137.342C138.902 137.454 139.002 137.605 139.08 137.795C139.158 137.985 139.197 138.219 139.197 138.498V139.688H147.529C147.807 139.688 148.03 139.721 148.197 139.788C148.364 139.855 148.492 139.939 148.581 140.04C148.67 140.14 148.725 140.252 148.748 140.375C148.781 140.509 148.798 140.632 148.798 140.743C148.798 140.889 148.781 141.023 148.748 141.146C148.725 141.28 148.67 141.397 148.581 141.497C148.492 141.598 148.364 141.676 148.197 141.732C148.03 141.799 147.807 141.832 147.529 141.832H137.844ZM136.592 136.019C136.313 136.019 136.091 135.991 135.924 135.935C135.757 135.879 135.629 135.806 135.54 135.717C135.451 135.617 135.39 135.505 135.356 135.382C135.334 135.248 135.323 135.103 135.323 134.946C135.323 134.824 135.334 134.701 135.356 134.578C135.39 134.455 135.451 134.343 135.54 134.243C135.629 134.142 135.757 134.064 135.924 134.008C136.091 133.941 136.313 133.908 136.592 133.908H148.731C149.009 133.908 149.232 133.941 149.399 134.008C149.566 134.064 149.694 134.142 149.783 134.243C149.872 134.343 149.928 134.455 149.95 134.578C149.983 134.701 150 134.824 150 134.946C150 135.103 149.983 135.248 149.95 135.382C149.928 135.505 149.872 135.617 149.783 135.717C149.694 135.806 149.566 135.879 149.399 135.935C149.232 135.991 149.009 136.019 148.731 136.019H136.592Z" fill="url(#paint9_linear_173_1343)"/>
<path fill-rule="evenodd" clip-rule="evenodd" d="M77.4401 0.798748C77.6425 1.40722 77.3058 2.06207 76.6881 2.2614C71.0449 4.08245 63.7167 6.95525 57.5586 11.089C51.3819 15.2353 46.567 20.5227 45.578 27.1261C45.2653 29.2137 45.4718 30.557 45.9152 31.4332C46.3389 32.2706 47.0553 32.8311 48.135 33.2036C49.2491 33.5879 50.6865 33.7473 52.4203 33.7811C53.7858 33.8077 55.2587 33.7568 56.8289 33.7025C57.0025 33.6965 57.1775 33.6904 57.3535 33.6844C57.4943 34.4696 57.6853 35.2377 57.9231 35.9855C57.5978 35.9961 57.2725 36.0074 56.9481 36.0186C55.369 36.0733 53.8105 36.1274 52.3738 36.0994C50.5668 36.0642 48.8291 35.8998 47.3571 35.392C45.8508 34.8724 44.57 33.9725 43.8085 32.4675C43.0666 31.0012 42.9 29.1201 43.2494 26.7877C44.3788 19.247 49.8295 13.4714 56.2331 9.17292C62.6552 4.86193 70.2217 1.90815 75.9553 0.0579227C76.573 -0.141405 77.2378 0.190274 77.4401 0.798748ZM94.7253 30.6416C94.6126 40.7909 86.2256 48.9842 75.8959 48.9842C67.4591 48.9842 60.3182 43.5185 57.9231 35.9855L58.1828 35.9772C62.2489 35.8498 66.3636 35.8585 69.847 37.1324C73.2277 38.3687 76.0818 40.824 77.5969 45.8367C77.7823 46.4504 78.4377 46.7997 79.0607 46.617C79.6836 46.4343 80.0383 45.7887 79.8528 45.1751C78.1267 39.4638 74.7403 36.4485 70.6662 34.9586C66.6947 33.5063 62.1403 33.5333 58.1079 33.6597C57.8541 33.6676 57.6026 33.676 57.3535 33.6844C57.1642 32.6293 57.0655 31.5433 57.0655 30.4346C57.0655 20.19 65.4962 11.885 75.8959 11.885C85.561 11.885 93.5254 19.058 94.6025 28.2947C93.2678 28.1506 91.8983 28.0379 90.5425 27.9264L90.4292 27.917C88.8841 27.7899 87.3571 27.663 85.8784 27.4906C82.9008 27.1433 80.2416 26.6226 78.1793 25.6264C75.1474 24.1617 73.5118 22.6387 72.6629 21.0645C71.8161 19.4939 71.6605 17.7035 71.9393 15.5069C72.0199 14.8715 71.5624 14.2921 70.9174 14.2127C70.2725 14.1333 69.6842 14.5839 69.6036 15.2193C69.2939 17.66 69.4204 19.9939 70.5842 22.1522C71.7459 24.3067 73.8494 26.1172 77.143 27.7082C79.5799 28.8855 82.5708 29.4397 85.6016 29.7932C87.1271 29.9711 88.694 30.101 90.2333 30.2277L90.3301 30.2357C91.8315 30.3592 93.305 30.4804 94.7253 30.6416ZM94.7253 30.6416C94.726 30.5727 94.7264 30.5037 94.7264 30.4346C94.7264 29.7109 94.6843 28.9968 94.6025 28.2947C94.7453 28.3102 94.8877 28.326 95.0296 28.3421C98.017 28.6828 100.941 29.2123 103.273 30.3586C105.665 31.5348 107.474 33.3857 108.075 36.2898C108.994 40.7343 106.903 44.8355 103.526 48.296C100.142 51.7637 95.3125 54.7606 90.2838 57.093C85.2455 59.4298 79.9256 61.137 75.4981 61.9864C73.2871 62.4105 71.2614 62.628 69.5848 62.5896C67.974 62.5527 66.4354 62.2774 65.4409 61.4753C63.5873 59.9805 63.7631 57.7231 64.4557 55.9573C65.1619 54.1567 66.5424 52.405 67.9209 51.2797C68.4213 50.8712 69.1633 50.9396 69.578 51.4326C69.9928 51.9257 69.9233 52.6565 69.4228 53.0651C68.316 53.9686 67.1956 55.4052 66.6513 56.7929C66.0933 58.2154 66.269 59.1465 66.9319 59.6812C67.2807 59.9624 68.1236 60.2368 69.6395 60.2716C71.0895 60.3048 72.9355 60.1157 75.0482 59.7104C79.2679 58.9009 84.4028 57.2578 89.2811 54.9952C94.1691 52.7281 98.7184 49.8765 101.829 46.6891C104.947 43.4945 106.467 40.134 105.768 36.7526C105.34 34.6826 104.102 33.3581 102.221 32.4332C100.28 31.4786 97.7046 30.9814 94.7589 30.6455C94.7477 30.6442 94.7365 30.6429 94.7253 30.6416Z" fill="url(#paint10_linear_173_1343)"/>
<defs>
<linearGradient id="paint0_linear_173_1343" x1="74.6105" y1="9.5" x2="74.6105" y2="181.5" gradientUnits="userSpaceOnUse">
<stop stop-color="#6995E7"/>
<stop offset="1" stop-color="#3D00A6"/>
</linearGradient>
<linearGradient id="paint1_linear_173_1343" x1="74.6105" y1="9.5" x2="74.6105" y2="181.5" gradientUnits="userSpaceOnUse">
<stop stop-color="#6995E7"/>
<stop offset="1" stop-color="#3D00A6"/>
</linearGradient>
<linearGradient id="paint2_linear_173_1343" x1="74.6105" y1="9.5" x2="74.6105" y2="181.5" gradientUnits="userSpaceOnUse">
<stop stop-color="#6995E7"/>
<stop offset="1" stop-color="#3D00A6"/>
</linearGradient>
<linearGradient id="paint3_linear_173_1343" x1="74.6105" y1="9.5" x2="74.6105" y2="181.5" gradientUnits="userSpaceOnUse">
<stop stop-color="#6995E7"/>
<stop offset="1" stop-color="#3D00A6"/>
</linearGradient>
<linearGradient id="paint4_linear_173_1343" x1="74.6105" y1="9.5" x2="74.6105" y2="181.5" gradientUnits="userSpaceOnUse">
<stop stop-color="#6995E7"/>
<stop offset="1" stop-color="#3D00A6"/>
</linearGradient>
<linearGradient id="paint5_linear_173_1343" x1="74.6105" y1="9.5" x2="74.6105" y2="181.5" gradientUnits="userSpaceOnUse">
<stop stop-color="#6995E7"/>
<stop offset="1" stop-color="#3D00A6"/>
</linearGradient>
<linearGradient id="paint6_linear_173_1343" x1="74.6105" y1="9.5" x2="74.6105" y2="181.5" gradientUnits="userSpaceOnUse">
<stop stop-color="#6995E7"/>
<stop offset="1" stop-color="#3D00A6"/>
</linearGradient>
<linearGradient id="paint7_linear_173_1343" x1="74.6105" y1="9.5" x2="74.6105" y2="181.5" gradientUnits="userSpaceOnUse">
<stop stop-color="#6995E7"/>
<stop offset="1" stop-color="#3D00A6"/>
</linearGradient>
<linearGradient id="paint8_linear_173_1343" x1="74.6105" y1="9.5" x2="74.6105" y2="181.5" gradientUnits="userSpaceOnUse">
<stop stop-color="#6995E7"/>
<stop offset="1" stop-color="#3D00A6"/>
</linearGradient>
<linearGradient id="paint9_linear_173_1343" x1="74.6105" y1="9.5" x2="74.6105" y2="181.5" gradientUnits="userSpaceOnUse">
<stop stop-color="#6995E7"/>
<stop offset="1" stop-color="#3D00A6"/>
</linearGradient>
<linearGradient id="paint10_linear_173_1343" x1="74.6105" y1="9.5" x2="74.6105" y2="181.5" gradientUnits="userSpaceOnUse">
<stop stop-color="#6995E7"/>
<stop offset="1" stop-color="#3D00A6"/>
</linearGradient>
</defs>
</svg>
